Coordinates
version=1
nRows=19
nColumns=24
inDegrees=yes

Units are S.I. units (second, meters, Newtons, ...)
Angles are in degrees.

endheader
time	pelvis_tilt	pelvis_list	pelvis_rotation	pelvis_tx	pelvis_ty	pelvis_tz	hip_flexion_r	hip_adduction_r	hip_rotation_r	knee_angle_r	ankle_angle_r	subtalar_angle_r	mtp_angle_r	hip_flexion_l	hip_adduction_l	hip_rotation_l	knee_angle_l	ankle_angle_l	subtalar_angle_l	mtp_angle_l	lumbar_extension	lumbar_bending	lumbar_rotation
      1.36000000	     13.23961672	      0.75685426	     -1.92186882	     -0.65861527	      0.93539654	     -0.03046442	    -30.95352954	      1.89036947	    -10.35366671	     -7.76713277	     25.58575722	     -4.87333829	     19.00815428	      0.29148489	      4.03779748	    -16.82880754	      8.36392516	      5.20022727	     -2.18391179	     38.37238075	    -20.67624729	     -2.50781078	      2.44621388
      1.36500000	     13.31193186	      0.95394668	     -2.11453496	     -0.65215816	      0.93494057	     -0.03046828	    -31.24378165	      1.51188194	    -10.32655073	     -8.19221051	     25.66630967	     -4.52995368	     18.22921121	      0.22578669	      4.24743360	    -16.65840872	      8.02285131	      4.63085570	     -2.71828083	     39.02348612	    -20.70386751	     -2.82792477	      2.51851431
      1.37000000	     13.32993825	      1.14747862	     -2.36840782	     -0.64572783	      0.93451739	     -0.03033648	    -31.42655740	      1.11125573	    -10.10410675	     -8.68493838	     25.60877930	     -4.47995208	     18.27373227	      0.27645231	      4.42798885	    -16.66590057	      7.48292086	      4.23285380	     -2.92627516	     39.06407912	    -20.67069737	     -3.17054819	      2.69468493
      1.37500000	     13.40520446	      1.38252716	     -2.53842876	     -0.63925954	      0.93422159	     -0.03040133	    -31.65771775	      0.69186551	    -10.08776937	     -9.21390770	     25.47796130	     -4.24330185	     18.87993098	      0.22528792	      4.66030136	    -16.33996826	      6.97596193	      3.51425241	     -3.74421501	     39.51503441	    -20.70345174	     -3.52515632	      2.73403276
      1.38000000	     13.44652366	      1.60721822	     -2.81254090	     -0.63281743	      0.93400265	     -0.03029495	    -31.78300271	      0.22903895	     -9.85061354	     -9.85107261	     25.35305597	     -4.15038063	     19.17968799	      0.25724159	      4.86678486	    -16.31275544	      6.31768562	      2.92999876	     -4.14035323	     39.62322381	    -20.69473131	     -3.90635363	      2.92777606
      1.38500000	     13.48860731	      1.90926921	     -2.88690648	     -0.62633389	      0.93379998	     -0.03050772	    -31.92381582	     -0.21279190	     -9.90236457	    -10.47390845	     25.07091830	     -4.05744967	     20.50387936	      0.27703630	      5.15279012	    -15.74605113	      5.65316197	      2.14826610	     -5.23244536	     40.14446362	    -20.69551809	     -4.30657955	      2.85436610
      1.39000000	     13.51625839	      2.16639194	     -3.16948133	     -0.61989211	      0.93373370	     -0.03042890	    -31.93130652	     -0.72886964	     -9.60454201	    -11.29453118	     24.86940338	     -3.98997265	     20.97914043	      0.34043725	      5.38829743	    -15.72065739	      4.89152886	      1.55144367	     -5.67625418	     40.25403767	    -20.67087666	     -4.72381698	      3.03277329
      1.39500000	     13.53736712	      2.47113767	     -3.25161321	     -0.61344930	      0.93368639	     -0.03063314	    -31.95385651	     -1.18108046	     -9.49695955	    -12.06399657	     24.31588459	     -4.20426440	     23.85344487	      0.42403851	      5.66929881	    -15.23719438	      4.08826045	      0.85970688	     -6.69604200	     41.15272467	    -20.65529619	     -5.13185947	      2.97435105
      1.40000000	     13.52170401	      2.77849972	     -3.36949191	     -0.60704862	      0.93368133	     -0.03085220	    -31.82978151	     -1.68220709	     -9.40795297	    -13.05431352	     24.08430594	     -4.02016842	     24.32302737	      0.56791194	      5.95438850	    -14.84677156	      3.21716912	      0.30349011	     -7.55601589	     41.09982524	    -20.60094388	     -5.54718105	      2.97908855
      1.40500000	     13.46394051	      3.08957223	     -3.40972423	     -0.60066674	      0.93368796	     -0.03121875	    -31.61476574	     -2.14834889	     -9.30487336	    -14.12406772	     23.66552360	     -4.04330798	     25.42561185	      0.74667638	      6.24972325	    -14.26850495	      2.35183557	     -0.20662474	     -8.60113112	     41.04094915	    -20.51195516	     -5.93416891	      2.86314270
      1.41000000	     13.46765915	      3.40224891	     -3.50547513	     -0.59428804	      0.93386868	     -0.03150958	    -31.41154349	     -2.65023578	     -9.12760257	    -15.26288145	     23.03973118	     -4.21163023	     27.82773919	      0.85955531	      6.55677830	    -13.88461602	      1.46599757	     -0.65792829	     -9.45997706	     40.98643040	    -20.48646922	     -6.34532218	      2.85532255
      1.41500000	     13.37591976	      3.69249983	     -3.52526354	     -0.58799899	      0.93397034	     -0.03194990	    -31.01162520	     -3.10723087	     -8.98620903	    -16.58904861	     22.51424704	     -4.24383992	     29.25550642	      1.10533602	      6.83518060	    -13.38571747	      0.50519890	     -0.92621682	    -10.33124108	     40.75872615	    -20.37516392	     -6.70046114	      2.76906039
      1.42000000	     13.19707479	      3.94930367	     -3.48978649	     -0.58181008	      0.93401108	     -0.03247784	    -30.42943762	     -3.51313670	     -8.82358385	    -18.07975095	     22.01639761	     -4.20092887	     30.09254128	      1.49698972	      7.06955503	    -12.90899691	     -0.57484180	     -0.96372407	    -11.05708416	     40.56047403	    -20.18646109	     -6.99731738	      2.63536597
      1.42500000	     13.13255087	      4.24745551	     -3.49432853	     -0.57554724	      0.93424961	     -0.03301995	    -29.92956222	     -3.99117139	     -8.66995085	    -19.60926833	     21.18864864	     -4.41236265	     32.85618650	      1.66655702	      7.38859279	    -12.38371994	     -1.46954744	     -1.10921185	    -11.94342302	     39.90323574	    -20.11203550	     -7.35005449	      2.55189485
      1.43000000	     12.88093393	      4.48196552	     -3.37486886	     -0.56949774	      0.93427793	     -0.03372447	    -29.11541955	     -4.35176445	     -8.51315746	    -21.35859516	     20.52071978	     -4.48939634	     33.92664412	      2.14360528	      7.61274902	    -11.85568515	     -2.58468361	     -0.94471242	    -12.53602321	     39.56171732	    -19.87207138	     -7.58766907	      2.36334818
      1.43500000	     12.71715202	      4.72415117	     -3.38045525	     -0.56337029	      0.93446747	     -0.03435372	    -28.32403281	     -4.80373344	     -8.27445406	    -23.17901380	     19.54950979	     -4.60860708	     36.71685658	      2.43011809	      7.88166606	    -11.44064311	     -3.52164859	     -0.76217688	    -13.19265962	     38.60725808	    -19.70389158	     -7.86406545	      2.31530547
      1.44000000	     12.40729495	      4.91209397	     -3.30733518	     -0.55739743	      0.93446214	     -0.03508689	    -27.26954008	     -5.17113901	     -8.02802439	    -25.19628945	     18.71840717	     -4.52999449	     37.38660953	      2.93450320	      8.07540540	    -11.07144723	     -4.58147043	     -0.40282513	    -13.63901477	     38.35667300	    -19.40131859	     -8.05215781	      2.20546359
      1.44500000	     12.14025558	      5.12818674	     -3.22944257	     -0.55146602	      0.93453053	     -0.03589157	    -26.20375454	     -5.57315655	     -7.81077065	    -27.26220816	     17.56332706	     -4.80325752	     40.56697531	      3.32860973	      8.32943191	    -10.58570604	     -5.51597047	     -0.05707078	    -14.18784800	     36.99526897	    -19.15144057	     -8.26407685	      2.09599594
      1.45000000	     11.75279363	      5.30499583	     -3.10498853	     -0.54562676	      0.93442143	     -0.03674010	    -24.92756379	     -5.91698747	     -7.57172050	    -29.46555282	     16.47561169	     -4.87943198	     41.59698543	      3.87795908	      8.52714237	    -10.16809924	     -6.50829382	      0.46638897	    -14.45868679	     36.43059178	    -18.78277430	     -8.41970084	      1.95606674
